<svg width="860" height="230" viewBox="0 0 860 230" fill="none" xmlns="http://www.w3.org/2000/svg">
  <g clip-path="url(#clip0_203_11)">
    <path d="M27 174L46 112C52 91 71 77 93 77H268L280 31H119C70 31 28 64 15 111L0 174H27Z" fill="url(#paint0_linear_203_11)"/>
    <path d="M12 86L110 179C121 190 136 197 152 197H199L58 69C40 53 13 65 12 86Z" fill="url(#paint1_linear_203_11)"/>
    <path d="M43 73L131 152C140 160 153 164 166 164H229L100 46C80 28 49 42 43 73Z" fill="url(#paint2_linear_203_11)"/>
    <path d="M282 77H221L104 195H170C191 195 211 187 226 172L282 117V77Z" fill="url(#paint3_linear_203_11)"/>
    <path d="M79 102H196L235 78H102C92 78 83 85 81 95L79 102Z" fill="#D8F1FF"/>
    <path d="M207 91L123 132L161 140L207 91Z" fill="#9FDEFF"/>
    <path d="M351 152V76.8H390.9C400.767 76.8 409.2 78.4 416.2 81.6C423.333 84.6667 428.8 89.1333 432.6 95C436.4 100.867 438.3 107.867 438.3 116C438.3 124 436.4 131 432.6 137C428.8 142.867 423.333 147.4 416.2 150.6C409.2 153.667 400.767 155.2 390.9 155.2H351V152ZM379.1 132.6H389.7C396.9 132.6 402.433 131.2 406.3 128.4C410.167 125.467 412.1 121.333 412.1 116C412.1 110.533 410.167 106.4 406.3 103.6C402.433 100.667 396.9 99.2 389.7 99.2H379.1V132.6Z" fill="#0E3471"/>
    <path d="M494.797 157.2C485.597 157.2 477.43 155.4 470.297 151.8C463.297 148.067 457.83 142.933 453.897 136.4C450.097 129.867 448.197 122.4 448.197 114C448.197 105.6 450.097 98.1333 453.897 91.6C457.83 85.0667 463.297 80 470.297 76.4C477.43 72.6667 485.597 70.8 494.797 70.8C501.597 70.8 507.73 71.6 513.197 73.2C518.664 74.8 523.53 77.2 527.797 80.4C532.197 83.6 535.93 87.4667 538.997 92L521.097 107.9C517.43 103.367 513.564 100.033 509.497 97.9C505.564 95.6333 501.03 94.5 495.897 94.5C491.364 94.5 487.364 95.4333 483.897 97.3C480.43 99.1667 477.73 101.867 475.797 105.4C473.864 108.8 472.897 112.933 472.897 117.8C472.897 122.533 473.864 126.667 475.797 130.2C477.73 133.6 480.43 136.233 483.897 138.1C487.364 139.967 491.364 140.9 495.897 140.9C501.03 140.9 505.564 139.833 509.497 137.7C513.564 135.433 517.43 132.033 521.097 127.5L538.997 143.4C535.93 147.933 532.197 151.867 527.797 155.2C523.53 158.4 518.664 160.8 513.197 162.4C507.73 164 501.597 164.8 494.797 164.8V157.2Z" fill="#0E3471"/>
    <path d="M584.919 164.8C575.986 164.8 567.886 162.933 560.619 159.2C553.353 155.467 547.619 150.333 543.419 143.8C539.353 137.267 537.319 129.867 537.319 121.6C537.319 113.333 539.353 105.933 543.419 99.4C547.619 92.8667 553.353 87.7333 560.619 84C567.886 80.2667 575.986 78.4 584.919 78.4C593.853 78.4 601.953 80.2667 609.219 84C616.486 87.7333 622.153 92.8667 626.219 99.4C630.419 105.8 632.519 113.2 632.519 121.6C632.519 129.867 630.419 137.333 626.219 144C622.153 150.533 616.486 155.6 609.219 159.2C601.953 162.933 593.853 164.8 584.919 164.8ZM584.919 141.9C588.519 141.9 591.719 141.1 594.519 139.5C597.319 137.767 599.519 135.333 601.119 132.2C602.719 128.933 603.519 125.4 603.519 121.6C603.519 117.667 602.719 114.133 601.119 111C599.519 107.867 597.319 105.5 594.519 103.9C591.719 102.167 588.519 101.3 584.919 101.3C581.319 101.3 578.119 102.167 575.319 103.9C572.519 105.5 570.319 107.867 568.719 111C567.119 114.133 566.319 117.667 566.319 121.6C566.319 125.4 567.119 128.933 568.719 132.2C570.319 135.333 572.519 137.767 575.319 139.5C578.119 141.1 581.319 141.9 584.919 141.9Z" fill="#0E3471"/>
    <path d="M639.731 163V80.2H665.331V89.7C668.398 86.1 672.065 83.3667 676.331 81.5C680.731 79.5 685.665 78.5 691.131 78.5V101.2C689.931 101.067 688.798 101 687.731 101C686.798 100.867 685.665 100.8 684.331 100.8C678.731 100.8 674.265 102.267 670.931 105.2C667.731 108.133 666.131 112.867 666.131 119.4V163H639.731Z" fill="#0E3471"/>
    <path d="M700.796 163V80.2H726.396V89.7C729.463 86.1 733.129 83.3667 737.396 81.5C741.796 79.5 746.729 78.5 752.196 78.5V101.2C750.996 101.067 749.863 101 748.796 101C747.863 100.867 746.729 100.8 745.396 100.8C739.796 100.8 735.329 102.267 731.996 105.2C728.796 108.133 727.196 112.867 727.196 119.4V163H700.796Z" fill="#0E3471"/>
    <path d="M797.162 164.8C787.296 164.8 778.562 162.933 770.962 159.2C763.496 155.467 757.629 150.333 753.362 143.8C749.229 137.267 747.162 129.867 747.162 121.6C747.162 113.2 749.162 105.8 753.162 99.4C757.296 92.8667 762.829 87.7333 769.762 84C776.829 80.2667 784.696 78.4 793.362 78.4C801.496 78.4 808.896 80.0667 815.562 83.4C822.362 86.7333 827.762 91.6 831.762 98C835.762 104.267 837.762 111.933 837.762 121C837.762 121.933 837.696 123.067 837.562 124.4C837.429 125.733 837.296 126.867 837.162 127.8H768.962V113.8H823.262L813.362 117.7C813.362 113.833 812.629 110.467 811.162 107.6C809.696 104.733 807.629 102.533 804.962 101C802.429 99.3333 799.429 98.5 795.962 98.5C792.629 98.5 789.629 99.3333 786.962 101C784.429 102.533 782.429 104.8 780.962 107.8C779.496 110.667 778.762 114.1 778.762 118.1V122.3C778.762 126.433 779.629 130.033 781.362 133.1C783.229 136.033 785.829 138.3 789.162 139.9C792.629 141.5 796.696 142.3 801.362 142.3C805.629 142.3 809.162 141.7 811.962 140.5C814.896 139.3 817.896 137.467 820.962 135L834.862 149.5C830.596 154.167 825.329 157.767 819.062 160.3C812.796 162.633 805.496 163.8 797.162 163.8V164.8Z" fill="#0E3471"/>
  </g>
  <defs>
    <linearGradient id="paint0_linear_203_11" x1="12" y1="41" x2="271" y2="161" gradientUnits="userSpaceOnUse">
      <stop stop-color="#0D72E4"/>
      <stop offset="1" stop-color="#57C2FF"/>
    </linearGradient>
    <linearGradient id="paint1_linear_203_11" x1="32" y1="69" x2="189" y2="200" gradientUnits="userSpaceOnUse">
      <stop stop-color="#DAF2FF"/>
      <stop offset="1" stop-color="#75C7FF"/>
    </linearGradient>
    <linearGradient id="paint2_linear_203_11" x1="44" y1="44" x2="211" y2="170" gradientUnits="userSpaceOnUse">
      <stop stop-color="#0B4AA4"/>
      <stop offset="1" stop-color="#2086E6"/>
    </linearGradient>
    <linearGradient id="paint3_linear_203_11" x1="118" y1="81" x2="274" y2="199" gradientUnits="userSpaceOnUse">
      <stop stop-color="#113980"/>
      <stop offset="1" stop-color="#234A9E"/>
    </linearGradient>
    <clipPath id="clip0_203_11">
      <rect width="860" height="230" fill="white"/>
    </clipPath>
  </defs>
</svg>
